<mxfile host="app.diagrams.net" modified="2023-09-19T13:56:25.168Z" agent="Mozilla/5.0 (Windows NT 10.0; Win64; x64) AppleWebKit/537.36 (KHTML, like Gecko) Chrome/116.0.0.0 Safari/537.36" etag="VlLpvf72wwU6W7izIfYu" version="21.7.5" type="github">
  <diagram name="第 1 页" id="0abql_iOvC0QdY2ZX0is">
    <mxGraphModel dx="2261" dy="790" grid="1" gridSize="10" guides="1" tooltips="1" connect="1" arrows="1" fold="1" page="1" pageScale="1" pageWidth="827" pageHeight="1169" math="0" shadow="0">
      <root>
        <mxCell id="0" />
        <mxCell id="1" parent="0" />
        <mxCell id="10Tzt0Tq10bFXuyb6pFD-25" value="" style="rounded=1;whiteSpace=wrap;html=1;" parent="1" vertex="1">
          <mxGeometry x="410" y="210" width="190" height="300" as="geometry" />
        </mxCell>
        <mxCell id="10Tzt0Tq10bFXuyb6pFD-18" value="" style="rounded=1;whiteSpace=wrap;html=1;" parent="1" vertex="1">
          <mxGeometry x="120" y="210" width="260" height="300" as="geometry" />
        </mxCell>
        <mxCell id="10Tzt0Tq10bFXuyb6pFD-2" value="" style="rounded=1;whiteSpace=wrap;html=1;" parent="1" vertex="1">
          <mxGeometry x="630" y="210" width="360" height="300" as="geometry" />
        </mxCell>
        <mxCell id="10Tzt0Tq10bFXuyb6pFD-3" value="&lt;font style=&quot;font-size: 20px;&quot;&gt;&lt;b style=&quot;&quot;&gt;Controller&lt;/b&gt;&lt;/font&gt;" style="text;html=1;strokeColor=none;fillColor=none;align=center;verticalAlign=middle;whiteSpace=wrap;rounded=0;" parent="1" vertex="1">
          <mxGeometry x="670" y="230" width="90" height="40" as="geometry" />
        </mxCell>
        <mxCell id="10Tzt0Tq10bFXuyb6pFD-4" value="&lt;font style=&quot;font-size: 18px;&quot;&gt;Method 1&lt;br&gt;URI:&amp;nbsp; /test/1&lt;br&gt;&lt;/font&gt;" style="rounded=1;whiteSpace=wrap;html=1;" parent="1" vertex="1">
          <mxGeometry x="680" y="290" width="270" height="50" as="geometry" />
        </mxCell>
        <mxCell id="10Tzt0Tq10bFXuyb6pFD-5" value="&lt;font style=&quot;font-size: 18px;&quot;&gt;Method 2&lt;br&gt;URI ：/test/2&lt;br&gt;&lt;/font&gt;" style="rounded=1;whiteSpace=wrap;html=1;" parent="1" vertex="1">
          <mxGeometry x="680" y="360" width="270" height="50" as="geometry" />
        </mxCell>
        <mxCell id="10Tzt0Tq10bFXuyb6pFD-6" value="&lt;font style=&quot;font-size: 18px;&quot;&gt;Method 3&lt;br&gt;URI : /test/3&lt;br&gt;&lt;/font&gt;" style="rounded=1;whiteSpace=wrap;html=1;" parent="1" vertex="1">
          <mxGeometry x="680" y="430" width="270" height="50" as="geometry" />
        </mxCell>
        <mxCell id="10Tzt0Tq10bFXuyb6pFD-12" style="edgeStyle=orthogonalEdgeStyle;rounded=0;orthogonalLoop=1;jettySize=auto;html=1;" parent="1" source="10Tzt0Tq10bFXuyb6pFD-7" target="10Tzt0Tq10bFXuyb6pFD-9" edge="1">
          <mxGeometry relative="1" as="geometry" />
        </mxCell>
        <mxCell id="10Tzt0Tq10bFXuyb6pFD-14" style="edgeStyle=orthogonalEdgeStyle;rounded=0;orthogonalLoop=1;jettySize=auto;html=1;" parent="1" source="10Tzt0Tq10bFXuyb6pFD-7" target="10Tzt0Tq10bFXuyb6pFD-10" edge="1">
          <mxGeometry relative="1" as="geometry" />
        </mxCell>
        <mxCell id="10Tzt0Tq10bFXuyb6pFD-16" style="edgeStyle=orthogonalEdgeStyle;rounded=0;orthogonalLoop=1;jettySize=auto;html=1;entryX=0;entryY=0.5;entryDx=0;entryDy=0;" parent="1" source="10Tzt0Tq10bFXuyb6pFD-7" target="10Tzt0Tq10bFXuyb6pFD-11" edge="1">
          <mxGeometry relative="1" as="geometry" />
        </mxCell>
        <mxCell id="10Tzt0Tq10bFXuyb6pFD-7" value="&lt;font style=&quot;font-size: 18px;&quot;&gt;&lt;b&gt;Servlet&lt;/b&gt;&lt;/font&gt;" style="rounded=0;whiteSpace=wrap;html=1;" parent="1" vertex="1">
          <mxGeometry x="-40" y="210" width="120" height="300" as="geometry" />
        </mxCell>
        <mxCell id="10Tzt0Tq10bFXuyb6pFD-13" style="edgeStyle=orthogonalEdgeStyle;rounded=0;orthogonalLoop=1;jettySize=auto;html=1;endSize=11;strokeWidth=3;" parent="1" source="10Tzt0Tq10bFXuyb6pFD-9" target="10Tzt0Tq10bFXuyb6pFD-4" edge="1">
          <mxGeometry relative="1" as="geometry" />
        </mxCell>
        <mxCell id="10Tzt0Tq10bFXuyb6pFD-9" value="&lt;font style=&quot;font-size: 18px;&quot;&gt;/test/1&lt;/font&gt;" style="rounded=1;whiteSpace=wrap;html=1;" parent="1" vertex="1">
          <mxGeometry x="200" y="290" width="160" height="50" as="geometry" />
        </mxCell>
        <mxCell id="10Tzt0Tq10bFXuyb6pFD-15" style="edgeStyle=orthogonalEdgeStyle;rounded=0;orthogonalLoop=1;jettySize=auto;html=1;strokeWidth=3;" parent="1" source="10Tzt0Tq10bFXuyb6pFD-10" target="10Tzt0Tq10bFXuyb6pFD-5" edge="1">
          <mxGeometry relative="1" as="geometry" />
        </mxCell>
        <mxCell id="10Tzt0Tq10bFXuyb6pFD-10" value="&lt;font style=&quot;font-size: 18px;&quot;&gt;/test/2&lt;/font&gt;" style="rounded=1;whiteSpace=wrap;html=1;" parent="1" vertex="1">
          <mxGeometry x="200" y="360" width="160" height="50" as="geometry" />
        </mxCell>
        <mxCell id="10Tzt0Tq10bFXuyb6pFD-17" style="edgeStyle=orthogonalEdgeStyle;rounded=0;orthogonalLoop=1;jettySize=auto;html=1;strokeWidth=3;" parent="1" source="10Tzt0Tq10bFXuyb6pFD-11" target="10Tzt0Tq10bFXuyb6pFD-6" edge="1">
          <mxGeometry relative="1" as="geometry" />
        </mxCell>
        <mxCell id="10Tzt0Tq10bFXuyb6pFD-11" value="&lt;font style=&quot;font-size: 18px;&quot;&gt;/test/3&lt;/font&gt;" style="rounded=1;whiteSpace=wrap;html=1;" parent="1" vertex="1">
          <mxGeometry x="200" y="430" width="160" height="50" as="geometry" />
        </mxCell>
        <mxCell id="10Tzt0Tq10bFXuyb6pFD-19" value="&lt;font style=&quot;font-size: 20px;&quot;&gt;&lt;b style=&quot;&quot;&gt;Request Mapping&lt;/b&gt;&lt;/font&gt;" style="text;html=1;strokeColor=none;fillColor=none;align=center;verticalAlign=middle;whiteSpace=wrap;rounded=0;" parent="1" vertex="1">
          <mxGeometry x="175" y="220" width="170" height="40" as="geometry" />
        </mxCell>
        <mxCell id="10Tzt0Tq10bFXuyb6pFD-21" style="edgeStyle=orthogonalEdgeStyle;rounded=0;orthogonalLoop=1;jettySize=auto;html=1;" parent="1" source="10Tzt0Tq10bFXuyb6pFD-20" target="10Tzt0Tq10bFXuyb6pFD-7" edge="1">
          <mxGeometry relative="1" as="geometry" />
        </mxCell>
        <mxCell id="10Tzt0Tq10bFXuyb6pFD-22" value="&lt;font style=&quot;font-size: 20px;&quot;&gt;http request&lt;/font&gt;" style="edgeLabel;html=1;align=center;verticalAlign=middle;resizable=0;points=[];" parent="10Tzt0Tq10bFXuyb6pFD-21" vertex="1" connectable="0">
          <mxGeometry x="-0.2875" y="-3" relative="1" as="geometry">
            <mxPoint x="13" y="-3" as="offset" />
          </mxGeometry>
        </mxCell>
        <mxCell id="10Tzt0Tq10bFXuyb6pFD-20" value="Actor" style="shape=umlActor;verticalLabelPosition=bottom;verticalAlign=top;html=1;outlineConnect=0;" parent="1" vertex="1">
          <mxGeometry x="-230" y="330" width="30" height="60" as="geometry" />
        </mxCell>
        <mxCell id="10Tzt0Tq10bFXuyb6pFD-23" value="&lt;font style=&quot;font-size: 20px;&quot;&gt;&lt;b style=&quot;&quot;&gt;Spring Mvc 的核心实现思路就是将 Http 协议与 Java 方法之间建立起映射关系&lt;/b&gt;&lt;/font&gt;" style="text;html=1;strokeColor=none;fillColor=none;align=center;verticalAlign=middle;whiteSpace=wrap;rounded=0;" parent="1" vertex="1">
          <mxGeometry x="130" y="110" width="380" height="70" as="geometry" />
        </mxCell>
        <mxCell id="10Tzt0Tq10bFXuyb6pFD-26" value="&lt;font style=&quot;font-size: 20px;&quot;&gt;&lt;b style=&quot;&quot;&gt;Message Convert&lt;/b&gt;&lt;/font&gt;" style="text;html=1;strokeColor=none;fillColor=none;align=center;verticalAlign=middle;whiteSpace=wrap;rounded=0;" parent="1" vertex="1">
          <mxGeometry x="420" y="210" width="170" height="40" as="geometry" />
        </mxCell>
        <mxCell id="10Tzt0Tq10bFXuyb6pFD-29" value="&lt;font style=&quot;font-size: 18px;&quot;&gt;HTTP Message To Java Object&lt;/font&gt;" style="rounded=1;whiteSpace=wrap;html=1;fillColor=#cdeb8b;strokeColor=#36393d;" parent="1" vertex="1">
          <mxGeometry x="445" y="260" width="120" height="70" as="geometry" />
        </mxCell>
        <mxCell id="10Tzt0Tq10bFXuyb6pFD-30" value="&lt;font style=&quot;font-size: 18px;&quot;&gt;Java&amp;nbsp; Object To HTTP Message&lt;/font&gt;" style="rounded=1;whiteSpace=wrap;html=1;fillColor=#cce5ff;strokeColor=#36393d;" parent="1" vertex="1">
          <mxGeometry x="445" y="400" width="120" height="70" as="geometry" />
        </mxCell>
        <mxCell id="10Tzt0Tq10bFXuyb6pFD-31" value="" style="shape=flexArrow;endArrow=classic;html=1;rounded=0;fillColor=#cdeb8b;strokeColor=#36393d;" parent="1" edge="1">
          <mxGeometry width="50" height="50" relative="1" as="geometry">
            <mxPoint x="570" y="290" as="sourcePoint" />
            <mxPoint x="660" y="290" as="targetPoint" />
          </mxGeometry>
        </mxCell>
        <mxCell id="10Tzt0Tq10bFXuyb6pFD-32" value="" style="shape=flexArrow;endArrow=classic;html=1;rounded=0;fillColor=#cce5ff;strokeColor=#36393d;" parent="1" edge="1">
          <mxGeometry width="50" height="50" relative="1" as="geometry">
            <mxPoint x="670" y="434.5" as="sourcePoint" />
            <mxPoint x="580" y="434.5" as="targetPoint" />
          </mxGeometry>
        </mxCell>
        <mxCell id="taZi2zHfxL4B1svhan_J-2" value="" style="rounded=0;whiteSpace=wrap;html=1;fillColor=#f5f5f5;fontColor=#333333;strokeColor=#666666;" vertex="1" parent="1">
          <mxGeometry x="-250" y="780" width="865" height="530" as="geometry" />
        </mxCell>
        <mxCell id="taZi2zHfxL4B1svhan_J-3" style="edgeStyle=orthogonalEdgeStyle;rounded=0;orthogonalLoop=1;jettySize=auto;html=1;fontSize=25;strokeWidth=2;" edge="1" parent="1" source="taZi2zHfxL4B1svhan_J-5" target="taZi2zHfxL4B1svhan_J-7">
          <mxGeometry relative="1" as="geometry" />
        </mxCell>
        <mxCell id="taZi2zHfxL4B1svhan_J-4" style="edgeStyle=orthogonalEdgeStyle;rounded=0;orthogonalLoop=1;jettySize=auto;html=1;exitX=0.5;exitY=1;exitDx=0;exitDy=0;fontSize=25;strokeWidth=2;" edge="1" parent="1" source="taZi2zHfxL4B1svhan_J-5" target="taZi2zHfxL4B1svhan_J-6">
          <mxGeometry relative="1" as="geometry" />
        </mxCell>
        <mxCell id="taZi2zHfxL4B1svhan_J-5" value="&lt;font style=&quot;font-size: 25px;&quot;&gt;Controller&lt;/font&gt;" style="rounded=0;whiteSpace=wrap;html=1;fillColor=#dae8fc;strokeColor=#6c8ebf;" vertex="1" parent="1">
          <mxGeometry x="-175" y="860" width="200" height="150" as="geometry" />
        </mxCell>
        <mxCell id="taZi2zHfxL4B1svhan_J-6" value="&lt;font style=&quot;font-size: 25px;&quot;&gt;View&lt;/font&gt;" style="rounded=0;whiteSpace=wrap;html=1;fillColor=#ffe6cc;strokeColor=#d79b00;" vertex="1" parent="1">
          <mxGeometry x="-175" y="1140" width="200" height="150" as="geometry" />
        </mxCell>
        <mxCell id="taZi2zHfxL4B1svhan_J-7" value="" style="rounded=0;whiteSpace=wrap;html=1;fillColor=#d5e8d4;strokeColor=#82b366;" vertex="1" parent="1">
          <mxGeometry x="155" y="880" width="420" height="380" as="geometry" />
        </mxCell>
        <mxCell id="taZi2zHfxL4B1svhan_J-8" style="edgeStyle=orthogonalEdgeStyle;rounded=0;orthogonalLoop=1;jettySize=auto;html=1;exitX=0.5;exitY=0;exitDx=0;exitDy=0;entryX=0.5;entryY=1;entryDx=0;entryDy=0;fontSize=30;strokeWidth=2;" edge="1" parent="1" source="taZi2zHfxL4B1svhan_J-9" target="taZi2zHfxL4B1svhan_J-10">
          <mxGeometry relative="1" as="geometry" />
        </mxCell>
        <mxCell id="taZi2zHfxL4B1svhan_J-9" value="" style="rounded=0;whiteSpace=wrap;html=1;fontSize=25;fillColor=#b1ddf0;strokeColor=#10739e;" vertex="1" parent="1">
          <mxGeometry x="220" y="1125" width="285" height="115" as="geometry" />
        </mxCell>
        <mxCell id="taZi2zHfxL4B1svhan_J-10" value="Manager" style="rounded=0;whiteSpace=wrap;html=1;fontSize=25;" vertex="1" parent="1">
          <mxGeometry x="237.5" y="990" width="250" height="70" as="geometry" />
        </mxCell>
        <mxCell id="taZi2zHfxL4B1svhan_J-11" value="&lt;font style=&quot;font-size: 30px;&quot;&gt;MVC&lt;/font&gt;" style="text;html=1;strokeColor=none;fillColor=none;align=center;verticalAlign=middle;whiteSpace=wrap;rounded=0;fontSize=25;" vertex="1" parent="1">
          <mxGeometry x="-230" y="790" width="110" height="50" as="geometry" />
        </mxCell>
        <mxCell id="taZi2zHfxL4B1svhan_J-12" value="&lt;font style=&quot;font-size: 30px;&quot;&gt;Model&lt;/font&gt;" style="text;html=1;strokeColor=none;fillColor=none;align=center;verticalAlign=middle;whiteSpace=wrap;rounded=0;fontSize=25;" vertex="1" parent="1">
          <mxGeometry x="175" y="900" width="110" height="50" as="geometry" />
        </mxCell>
        <mxCell id="taZi2zHfxL4B1svhan_J-13" value="&lt;font style=&quot;font-size: 22px;&quot;&gt;Entity&lt;/font&gt;" style="rounded=0;whiteSpace=wrap;html=1;fontSize=30;" vertex="1" parent="1">
          <mxGeometry x="245" y="1180" width="100" height="40" as="geometry" />
        </mxCell>
        <mxCell id="taZi2zHfxL4B1svhan_J-14" value="&lt;font style=&quot;font-size: 22px;&quot;&gt;DataAccess&lt;/font&gt;" style="rounded=0;whiteSpace=wrap;html=1;fontSize=30;" vertex="1" parent="1">
          <mxGeometry x="365" y="1180" width="130" height="40" as="geometry" />
        </mxCell>
        <mxCell id="taZi2zHfxL4B1svhan_J-15" value="DAO" style="text;html=1;strokeColor=none;fillColor=none;align=center;verticalAlign=middle;whiteSpace=wrap;rounded=0;fontSize=22;" vertex="1" parent="1">
          <mxGeometry x="237.5" y="1140" width="60" height="30" as="geometry" />
        </mxCell>
        <mxCell id="taZi2zHfxL4B1svhan_J-17" style="edgeStyle=orthogonalEdgeStyle;rounded=0;orthogonalLoop=1;jettySize=auto;html=1;entryX=0;entryY=0.5;entryDx=0;entryDy=0;strokeWidth=2;" edge="1" parent="1" source="taZi2zHfxL4B1svhan_J-16" target="taZi2zHfxL4B1svhan_J-5">
          <mxGeometry relative="1" as="geometry">
            <Array as="points">
              <mxPoint x="-290" y="1071" />
              <mxPoint x="-290" y="935" />
            </Array>
          </mxGeometry>
        </mxCell>
        <mxCell id="taZi2zHfxL4B1svhan_J-16" value="&lt;font style=&quot;font-size: 25px;&quot;&gt;DispatcherServlet&lt;/font&gt;" style="rounded=0;whiteSpace=wrap;html=1;fillColor=#cdeb8b;strokeColor=#36393d;" vertex="1" parent="1">
          <mxGeometry x="-560" y="900" width="207" height="341" as="geometry" />
        </mxCell>
        <mxCell id="taZi2zHfxL4B1svhan_J-18" value="&lt;font style=&quot;font-size: 25px;&quot;&gt;FontController&lt;/font&gt;" style="text;html=1;strokeColor=none;fillColor=none;align=center;verticalAlign=middle;whiteSpace=wrap;rounded=0;" vertex="1" parent="1">
          <mxGeometry x="-526.5" y="870" width="140" height="30" as="geometry" />
        </mxCell>
        <mxCell id="taZi2zHfxL4B1svhan_J-20" style="edgeStyle=orthogonalEdgeStyle;rounded=0;orthogonalLoop=1;jettySize=auto;html=1;entryX=0;entryY=0.5;entryDx=0;entryDy=0;" edge="1" parent="1" source="taZi2zHfxL4B1svhan_J-19" target="taZi2zHfxL4B1svhan_J-16">
          <mxGeometry relative="1" as="geometry" />
        </mxCell>
        <mxCell id="taZi2zHfxL4B1svhan_J-21" value="&lt;font style=&quot;font-size: 18px;&quot;&gt;HTTP Request&lt;/font&gt;" style="edgeLabel;html=1;align=center;verticalAlign=middle;resizable=0;points=[];" vertex="1" connectable="0" parent="taZi2zHfxL4B1svhan_J-20">
          <mxGeometry x="-0.2598" y="1" relative="1" as="geometry">
            <mxPoint x="23" y="1" as="offset" />
          </mxGeometry>
        </mxCell>
        <mxCell id="taZi2zHfxL4B1svhan_J-19" value="Actor" style="shape=umlActor;verticalLabelPosition=bottom;verticalAlign=top;html=1;outlineConnect=0;" vertex="1" parent="1">
          <mxGeometry x="-790" y="1020" width="50" height="100" as="geometry" />
        </mxCell>
      </root>
    </mxGraphModel>
  </diagram>
</mxfile>
